<?xml version="1.0" encoding="utf-8"?>
<!-- Generator: Adobe Illustrator 23.0.0, SVG Export Plug-In . SVG Version: 6.00 Build 0)  -->
<svg version="1.1" id="图层_1" xmlns="http://www.w3.org/2000/svg" xmlns:xlink="http://www.w3.org/1999/xlink" x="0px" y="0px"
	 viewBox="0 0 150 150" style="enable-background:new 0 0 150 150;" xml:space="preserve">
<style type="text/css">
	.st0{fill:url(#形状_1_);}
	.st1{fill:url(#SVGID_1_);}
	.st2{fill:url(#SVGID_2_);}
	.st3{fill:url(#路径_1_);}
	.st4{fill:url(#SVGID_3_);}
	.st5{fill:url(#SVGID_4_);}
	.st6{fill:url(#SVGID_5_);}
	.st7{fill:url(#SVGID_6_);}
	.st8{fill:url(#SVGID_7_);}
	.st9{fill:url(#SVGID_8_);}
</style>
<g id="页面-1">
	<g id="编组" transform="translate(0.800000, 0.300000)">
		
			<linearGradient id="形状_1_" gradientUnits="userSpaceOnUse" x1="-304.5137" y1="348.0652" x2="-300.5316" y2="351.5124" gradientTransform="matrix(13.4 0 0 -13.4 4136.1191 4810.6035)">
			<stop  offset="0" style="stop-color:#00AEEB"/>
			<stop  offset="0.5162" style="stop-color:#2B883A"/>
			<stop  offset="1" style="stop-color:#FCC201"/>
		</linearGradient>
		<path id="形状" class="st0" d="M107.3,113c-6.2,0-11.1-5-11.1-11.1c0-6.2,5-11.1,11.1-11.1c6.2,0,11.1,5,11.1,11.1
			C118.4,108,113.4,113,107.3,113z M107.3,97c-2.7,0-4.8,2.2-4.8,4.8c0,2.7,2.2,4.8,4.8,4.8c2.7,0,4.8-2.2,4.8-4.8
			C111.9,99.2,109.9,97,107.3,97z"/>
		
			<linearGradient id="SVGID_1_" gradientUnits="userSpaceOnUse" x1="-307.123" y1="347.2602" x2="-303.1408" y2="350.7074" gradientTransform="matrix(13.4 0 0 -13.4 4146.9204 4771.9043)">
			<stop  offset="0" style="stop-color:#00AEEB"/>
			<stop  offset="0.5162" style="stop-color:#2B883A"/>
			<stop  offset="1" style="stop-color:#FCC201"/>
		</linearGradient>
		<path class="st1" d="M125.3,48.6c-6.2,0-11.1-5-11.1-11.1s5-11.1,11.1-11.1c6.2,0,11.1,5,11.1,11.1S131.4,48.6,125.3,48.6z
			 M125.3,32.6c-2.7,0-4.8,2.2-4.8,4.8c0,2.7,2.2,4.8,4.8,4.8c2.7,0,4.8-2.2,4.8-4.8C130.1,34.8,127.9,32.6,125.3,32.6z"/>
		
			<linearGradient id="SVGID_2_" gradientUnits="userSpaceOnUse" x1="-317.1334" y1="365.6992" x2="-316.4517" y2="366.6392" gradientTransform="matrix(30.853 0 0 -49.1409 9860.5303 18101.3848)">
			<stop  offset="0" style="stop-color:#00AEEB"/>
			<stop  offset="0.5162" style="stop-color:#2B883A"/>
			<stop  offset="1" style="stop-color:#FCC201"/>
		</linearGradient>
		<path class="st2" d="M73,118c-0.8,1.5-0.3,3.5,1.2,4.3c0.5,0.3,1,0.5,1.7,0.5c1.2,0,2.2-0.5,2.7-1.5l28.6-47.9l-3.7-6.2L73,118z
			 M122.4,41.4c-1.5-0.8-3.5-0.3-4.3,1.2l-3.7,5.8l3.7,6.2l5.3-9C124.4,44.3,123.9,42.3,122.4,41.4z"/>
		
			<linearGradient id="路径_1_" gradientUnits="userSpaceOnUse" x1="-284.0197" y1="341.5964" x2="-280.2105" y2="346.0206" gradientTransform="matrix(7.7817 0 0 -10.4409 2287.3921 3716.7952)">
			<stop  offset="0" style="stop-color:#00AEEB"/>
			<stop  offset="0.5162" style="stop-color:#2B883A"/>
			<stop  offset="1" style="stop-color:#FCC201"/>
		</linearGradient>
		<path id="路径" class="st3" d="M97,123.1c-0.5,0-1.2-0.2-1.7-0.5c-1.5-0.8-2-2.8-1.2-4.3l6.7-11c0.8-1.5,2.8-2,4.3-1.2
			c1.5,0.8,2,2.8,1.2,4.3l-6.7,11C99.1,122.6,98,123.1,97,123.1z"/>
		
			<linearGradient id="SVGID_3_" gradientUnits="userSpaceOnUse" x1="-309.0719" y1="361.3753" x2="-307.7793" y2="363.0899" gradientTransform="matrix(17.5817 0 0 -26.9409 5470.332 9849.6455)">
			<stop  offset="0" style="stop-color:#00AEEB"/>
			<stop  offset="0.5162" style="stop-color:#2B883A"/>
			<stop  offset="1" style="stop-color:#FCC201"/>
		</linearGradient>
		<path class="st4" d="M31.6,122.8c-0.5,0-1.2-0.2-1.7-0.5c-1.5-0.8-2-2.8-1.2-4.3l23-38.4c0.8-1.5,2.8-2,4.3-1.2
			c1.5,0.8,2,2.8,1.2,4.3l-23,38.6C33.8,122.3,32.6,122.8,31.6,122.8z"/>
		
			<linearGradient id="SVGID_4_" gradientUnits="userSpaceOnUse" x1="-315.6738" y1="300.9158" x2="-313.573" y2="301.1879" gradientTransform="matrix(25.4 0 0 -3.8 8033.2192 1225.0848)">
			<stop  offset="0" style="stop-color:#00AEEB"/>
			<stop  offset="0.5162" style="stop-color:#2B883A"/>
			<stop  offset="1" style="stop-color:#FCC201"/>
		</linearGradient>
		<path class="st5" d="M54.5,84.3H18.6c-1.8,0-3.2-1.5-3.2-3.2c0-1.7,1.5-3.2,3.2-3.2h35.9c1.8,0,3.2,1.5,3.2,3.2
			C57.7,82.9,56.2,84.3,54.5,84.3z"/>
		
			<linearGradient id="SVGID_5_" gradientUnits="userSpaceOnUse" x1="-304.0276" y1="351.5956" x2="-300.0455" y2="355.0428" gradientTransform="matrix(13.4 0 0 -13.4 4077.9199 4798.2051)">
			<stop  offset="0" style="stop-color:#00AEEB"/>
			<stop  offset="0.5162" style="stop-color:#2B883A"/>
			<stop  offset="1" style="stop-color:#FCC201"/>
		</linearGradient>
		<path class="st6" d="M10.5,92.3c-6.2,0-11.1-5-11.1-11.1S4.3,70,10.5,70s11.1,5,11.1,11.1S16.6,92.3,10.5,92.3z M10.5,76.4
			c-2.7,0-4.8,2.2-4.8,4.8S7.8,86,10.5,86s4.8-2.2,4.8-4.8C15.1,78.5,13,76.4,10.5,76.4z"/>
		<g transform="translate(3.600000, 7.500000)">
			
				<linearGradient id="SVGID_6_" gradientUnits="userSpaceOnUse" x1="-326.556" y1="358.5012" x2="-325.6641" y2="359.1556" gradientTransform="matrix(59.825 0 0 -50.7 19584.4297 18293.3652)">
				<stop  offset="0" style="stop-color:#00AEEB"/>
				<stop  offset="0.5162" style="stop-color:#2B883A"/>
				<stop  offset="1" style="stop-color:#FCC201"/>
			</linearGradient>
			<path class="st7" d="M71.9,109.3H54.8L73.4,78c-2.3-0.2-4.3-1.2-5.7-2.8l-21.3,35.6c-0.7,1-0.7,2.2,0,3.2c0.5,1,1.7,1.7,2.8,1.7
				h22.8c1.8,0,3.2-1.5,3.2-3.2C75.2,110.8,73.6,109.3,71.9,109.3z M145.1,110.8l-46.6-78c-1.2-2-4.3-2-5.5,0L75.4,62.2
				c2.2,0.5,4,1.8,5.2,3.7l15.1-25.5l40.9,68.7H93.7c-1.8,0-3.2,1.5-3.2,3.2s1.5,3.2,3.2,3.2h48.6c1.2,0,2.2-0.7,2.8-1.7
				C145.6,113.1,145.6,111.8,145.1,110.8z"/>
			
				<linearGradient id="SVGID_7_" gradientUnits="userSpaceOnUse" x1="-324.1362" y1="358.9246" x2="-323.2581" y2="359.8357" gradientTransform="matrix(42.3 0 0 -50.7 13732.5195 18293.3652)">
				<stop  offset="0" style="stop-color:#00AEEB"/>
				<stop  offset="0.5162" style="stop-color:#2B883A"/>
				<stop  offset="1" style="stop-color:#FCC201"/>
			</linearGradient>
			<path class="st8" d="M27.7,109.3H10.5l15.6-26.1h-7.5L2.2,110.8c-0.7,1-0.7,2.2,0,3.2c0.5,1,1.7,1.7,2.8,1.7h22.6
				c1.8,0,3.2-1.5,3.2-3.2C30.8,110.8,29.5,109.3,27.7,109.3z M54.3,32.8c-1.2-2-4.3-2-5.5,0L30.2,64h7.5l14-23.5l15.3,25.6
				c1-2,2.8-3.3,5.2-3.8L54.3,32.8z"/>
			
				<linearGradient id="SVGID_8_" gradientUnits="userSpaceOnUse" x1="-308.6248" y1="341.6177" x2="-304.6426" y2="345.0649" gradientTransform="matrix(13.4 0 0 -13.4 4162.7607 4688.0044)">
				<stop  offset="0" style="stop-color:#00AEEB"/>
				<stop  offset="0.5162" style="stop-color:#2B883A"/>
				<stop  offset="1" style="stop-color:#FCC201"/>
			</linearGradient>
			<path class="st9" d="M73.7,81.2c-6.2,0-11.1-5-11.1-11.1s5-11.1,11.1-11.1s11.1,5,11.1,11.1S79.9,81.2,73.7,81.2z M73.7,65.4
				c-2.7,0-4.8,2.2-4.8,4.8c0,2.7,2.2,4.8,4.8,4.8c2.7,0,4.8-2.2,4.8-4.8C78.6,67.4,76.4,65.4,73.7,65.4z"/>
		</g>
	</g>
</g>
</svg>
