<?xml version="1.0" encoding="utf-8"?>
<!-- Generator: Adobe Illustrator 23.0.0, SVG Export Plug-In . SVG Version: 6.00 Build 0)  -->
<svg version="1.1" id="图层_1" xmlns="http://www.w3.org/2000/svg" xmlns:xlink="http://www.w3.org/1999/xlink" x="0px" y="0px"
	 viewBox="0 0 150 150" style="enable-background:new 0 0 150 150;" xml:space="preserve">
<style type="text/css">
	.st0{fill:url(#SVGID_1_);}
	.st1{fill:url(#SVGID_2_);}
	.st2{fill:url(#SVGID_3_);}
	.st3{fill:url(#SVGID_4_);}
	.st4{fill:url(#SVGID_5_);}
	.st5{fill:url(#SVGID_6_);}
	.st6{fill:url(#SVGID_7_);}
	.st7{fill:url(#SVGID_8_);}
	.st8{fill:url(#SVGID_9_);}
	.st9{fill:url(#SVGID_10_);}
	.st10{fill:url(#SVGID_11_);}
</style>
<g>
	<linearGradient id="SVGID_1_" gradientUnits="userSpaceOnUse" x1="75.5267" y1="156.5609" x2="70.3964" y2="30.0131">
		<stop  offset="0" style="stop-color:#FFD555"/>
		<stop  offset="0.5199" style="stop-color:#8815FF"/>
		<stop  offset="1" style="stop-color:#0E48D8"/>
	</linearGradient>
	<path class="st0" d="M139.1,16.1V1.9c0-1-0.8-1.9-1.9-1.9H1.9C0.8,0,0,0.8,0,1.9v14.3c0,1,0.8,1.9,1.9,1.9h135.4
		C138.3,18,139.1,17.2,139.1,16.1z"/>
	<linearGradient id="SVGID_2_" gradientUnits="userSpaceOnUse" x1="85.6117" y1="156.1521" x2="80.4814" y2="29.6043">
		<stop  offset="0" style="stop-color:#FFD555"/>
		<stop  offset="0.5199" style="stop-color:#8815FF"/>
		<stop  offset="1" style="stop-color:#0E48D8"/>
	</linearGradient>
	<path class="st1" d="M148.2,22H12.9c-1,0-1.9,0.8-1.9,1.9v14.3c0,1,0.8,1.9,1.9,1.9h135.4c1,0,1.9-0.8,1.9-1.9V23.9
		C150.1,22.8,149.2,22,148.2,22z"/>
	<linearGradient id="SVGID_3_" gradientUnits="userSpaceOnUse" x1="84.2065" y1="156.2091" x2="79.0762" y2="29.6613">
		<stop  offset="0" style="stop-color:#FFD555"/>
		<stop  offset="0.5199" style="stop-color:#8815FF"/>
		<stop  offset="1" style="stop-color:#0E48D8"/>
	</linearGradient>
	<path class="st2" d="M138.5,44H21.6c-1,0-1.9,0.8-1.9,1.9v14.3c0,1,0.8,1.9,1.9,1.9h116.9c1,0,1.9-0.8,1.9-1.9V45.9
		C140.4,44.8,139.5,44,138.5,44z"/>
	<linearGradient id="SVGID_4_" gradientUnits="userSpaceOnUse" x1="96.782" y1="155.6992" x2="91.6517" y2="29.1514">
		<stop  offset="0" style="stop-color:#FFD555"/>
		<stop  offset="0.5199" style="stop-color:#8815FF"/>
		<stop  offset="1" style="stop-color:#0E48D8"/>
	</linearGradient>
	<path class="st3" d="M138.5,132H53.9c-1,0-1.9,0.8-1.9,1.9v14.3c0,1,0.8,1.9,1.9,1.9h84.6c1,0,1.9-0.8,1.9-1.9v-14.3
		C140.4,132.8,139.5,132,138.5,132z"/>
	<linearGradient id="SVGID_5_" gradientUnits="userSpaceOnUse" x1="45.8189" y1="157.7653" x2="40.6886" y2="31.2175">
		<stop  offset="0" style="stop-color:#FFD555"/>
		<stop  offset="0.5199" style="stop-color:#8815FF"/>
		<stop  offset="1" style="stop-color:#0E48D8"/>
	</linearGradient>
	<path class="st4" d="M46,110h-3.5c-1,0-1.9,0.8-1.9,1.9v14.3c0,1,0.8,1.9,1.9,1.9H46c1,0,1.9-0.8,1.9-1.9v-14.3
		C47.8,110.8,47,110,46,110z"/>
	<linearGradient id="SVGID_6_" gradientUnits="userSpaceOnUse" x1="65.1728" y1="156.9807" x2="60.0424" y2="30.4329">
		<stop  offset="0" style="stop-color:#FFD555"/>
		<stop  offset="0.5199" style="stop-color:#8815FF"/>
		<stop  offset="1" style="stop-color:#0E48D8"/>
	</linearGradient>
	<path class="st5" d="M56.7,110c-1,0-1.9,0.8-1.9,1.9v14.3c0,1,0.8,1.9,1.9,1.9h13.8c1,0,1.9-0.8,1.9-1.9v-14.3c0-1-0.8-1.9-1.9-1.9
		H56.7z"/>
	<linearGradient id="SVGID_7_" gradientUnits="userSpaceOnUse" x1="105.3021" y1="155.3538" x2="100.1718" y2="28.806">
		<stop  offset="0" style="stop-color:#FFD555"/>
		<stop  offset="0.5199" style="stop-color:#8815FF"/>
		<stop  offset="1" style="stop-color:#0E48D8"/>
	</linearGradient>
	<path class="st6" d="M78.5,110c-1,0-1.9,0.8-1.9,1.9v14.3c0,1,0.8,1.9,1.9,1.9h50.7c1,0,1.9-0.8,1.9-1.9v-14.3c0-1-0.8-1.9-1.9-1.9
		H78.5z"/>
	<linearGradient id="SVGID_8_" gradientUnits="userSpaceOnUse" x1="39.6974" y1="158.0135" x2="34.567" y2="31.4657">
		<stop  offset="0" style="stop-color:#FFD555"/>
		<stop  offset="0.5199" style="stop-color:#8815FF"/>
		<stop  offset="1" style="stop-color:#0E48D8"/>
	</linearGradient>
	<path class="st7" d="M46,84c1,0,1.9-0.8,1.9-1.9V67.9c0-1-0.8-1.9-1.9-1.9H26.7c-1,0-1.9,0.8-1.9,1.9v14.3c0,1,0.8,1.9,1.9,1.9H46z
		"/>
	<linearGradient id="SVGID_9_" gradientUnits="userSpaceOnUse" x1="94.3019" y1="155.7998" x2="89.1716" y2="29.252">
		<stop  offset="0" style="stop-color:#FFD555"/>
		<stop  offset="0.5199" style="stop-color:#8815FF"/>
		<stop  offset="1" style="stop-color:#0E48D8"/>
	</linearGradient>
	<path class="st8" d="M128.2,66H53.8c-1,0-1.9,0.8-1.9,1.9v14.3c0,1,0.8,1.9,1.9,1.9h74.4c1,0,1.9-0.8,1.9-1.9V67.9
		C130.1,66.8,129.3,66,128.2,66z"/>
	<linearGradient id="SVGID_10_" gradientUnits="userSpaceOnUse" x1="16.6346" y1="158.9485" x2="11.5043" y2="32.4007">
		<stop  offset="0" style="stop-color:#FFD555"/>
		<stop  offset="0.5199" style="stop-color:#8815FF"/>
		<stop  offset="1" style="stop-color:#0E48D8"/>
	</linearGradient>
	<path class="st9" d="M17.7,88h-7.1c-1,0-1.9,0.8-1.9,1.9v14.3c0,1,0.8,1.9,1.9,1.9h7.1c1,0,1.9-0.8,1.9-1.9V89.9
		C19.5,88.8,18.7,88,17.7,88z"/>
	<linearGradient id="SVGID_11_" gradientUnits="userSpaceOnUse" x1="75.4028" y1="156.566" x2="70.2724" y2="30.0182">
		<stop  offset="0" style="stop-color:#FFD555"/>
		<stop  offset="0.5199" style="stop-color:#8815FF"/>
		<stop  offset="1" style="stop-color:#0E48D8"/>
	</linearGradient>
	<path class="st10" d="M122.2,104.1V89.9c0-1-0.8-1.9-1.9-1.9H25.7c-1,0-1.9,0.8-1.9,1.9v14.3c0,1,0.8,1.9,1.9,1.9h94.6
		C121.3,106,122.2,105.2,122.2,104.1z"/>
</g>
</svg>
