<?xml version="1.0" encoding="utf-8"?>
<!-- Generator: Adobe Illustrator 23.0.0, SVG Export Plug-In . SVG Version: 6.00 Build 0)  -->
<svg version="1.1" id="图层_1" xmlns="http://www.w3.org/2000/svg" xmlns:xlink="http://www.w3.org/1999/xlink" x="0px" y="0px"
	 viewBox="0 0 64 64" style="enable-background:new 0 0 64 64;" xml:space="preserve">
<style type="text/css">
	.st0{fill:#0091CE;}
	.st1{fill:#399036;}
	.st2{fill:#F6DE00;}
</style>
<g>
	<path class="st0" d="M48.7,21c-1.6,1.6-4.1,1.6-5.7,0c-1.6-1.6-1.6-4.1,0-5.7c1.6-1.6,4.1-1.6,5.7,0C50.3,16.8,50.3,19.4,48.7,21"
		/>
	<path class="st0" d="M20.6,49.1c-1.6,1.6-4.1,1.6-5.7,0c-1.6-1.6-1.6-4.1,0-5.7c1.6-1.6,4.1-1.6,5.7,0C22.1,45,22.1,47.6,20.6,49.1
		"/>
	<path class="st1" d="M51.7,36.2c-2.2,0-4-1.8-4-4c0-2.2,1.8-4,4-4c2.2,0,4,1.8,4,4C55.8,34.4,54,36.2,51.7,36.2"/>
	<path class="st2" d="M11.9,36.2c-2.2,0-4-1.8-4-4c0-2.2,1.8-4,4-4c2.2,0,4,1.8,4,4C15.9,34.4,14.1,36.2,11.9,36.2"/>
	<path class="st1" d="M35.8,12.3c0,2.2-1.8,4-4,4c-2.2,0-4-1.8-4-4c0-2.2,1.8-4,4-4C34,8.3,35.8,10.1,35.8,12.3"/>
	<path class="st1" d="M35.8,52.1c0,2.2-1.8,4-4,4c-2.2,0-4-1.8-4-4c0-2.2,1.8-4,4-4C34,48.1,35.8,49.9,35.8,52.1"/>
	<path class="st0" d="M20.6,15.3c1.6,1.6,1.6,4.1,0,5.7c-1.6,1.6-4.1,1.6-5.7,0c-1.6-1.6-1.6-4.1,0-5.7C16.4,13.7,19,13.7,20.6,15.3
		"/>
	<path class="st0" d="M48.7,43.5c1.6,1.6,1.6,4.1,0,5.7c-1.6,1.6-4.1,1.6-5.7,0c-1.6-1.6-1.6-4.1,0-5.7
		C44.6,41.9,47.2,41.9,48.7,43.5"/>
	<path class="st2" d="M45.6,7.1c-0.6,1.5-2.3,2.1-3.8,1.5c-1.5-0.6-2.1-2.3-1.5-3.8c0.6-1.5,2.3-2.1,3.8-1.5
		C45.5,3.9,46.2,5.6,45.6,7.1"/>
	<path class="st2" d="M23.3,59.6c-0.6,1.5-2.3,2.1-3.8,1.5c-1.5-0.6-2.1-2.3-1.5-3.8c0.6-1.5,2.3-2.1,3.8-1.5
		C23.3,56.4,23.9,58.1,23.3,59.6"/>
	<path class="st1" d="M6.7,18.4c1.5,0.6,2.2,2.3,1.5,3.8c-0.6,1.5-2.3,2.1-3.8,1.5c-1.5-0.6-2.1-2.3-1.5-3.8
		C3.5,18.5,5.2,17.8,6.7,18.4"/>
	<path class="st0" d="M59.2,40.7c1.5,0.6,2.1,2.3,1.5,3.8c-0.6,1.5-2.3,2.2-3.8,1.5c-1.5-0.6-2.1-2.3-1.5-3.8
		C56,40.8,57.7,40.1,59.2,40.7"/>
	<path class="st0" d="M4.3,40.2c1.5-0.6,3.2,0.1,3.8,1.6c0.6,1.5-0.1,3.2-1.6,3.7C5,46.2,3.3,45.4,2.7,44
		C2.1,42.5,2.8,40.8,4.3,40.2"/>
	<path class="st1" d="M57.2,18.9c1.5-0.6,3.2,0.1,3.8,1.6c0.6,1.5-0.1,3.2-1.6,3.7c-1.5,0.6-3.2-0.1-3.7-1.6
		C55,21.1,55.7,19.5,57.2,18.9"/>
	<path class="st0" d="M45.2,57.6c-0.6-1.5-2.3-2.2-3.7-1.6c-1.5,0.6-2.2,2.3-1.6,3.7c0.6,1.5,2.3,2.2,3.8,1.6
		C45,60.7,45.8,59,45.2,57.6"/>
	<path class="st2" d="M23.8,4.7c-0.6-1.5-2.3-2.2-3.8-1.6c-1.5,0.6-2.2,2.3-1.6,3.7c0.6,1.5,2.3,2.2,3.7,1.6
		C23.7,7.8,24.4,6.2,23.8,4.7"/>
	<path class="st0" d="M43.8,44c-9-9.8-9-13.8,0-23.7l-0.2-0.2c-9.8,9-13.9,9-23.7,0l-0.2,0.2c9,9.8,9,13.9,0,23.7l0.2,0.2
		c9.8-9,13.9-9,23.7,0L43.8,44z"/>
	<path class="st0" d="M54.6,12.3c-0.8,0.8-2.1,0.8-2.9,0c-0.8-0.8-0.8-2.1,0-2.9c0.8-0.8,2.1-0.8,2.9,0
		C55.4,10.2,55.4,11.5,54.6,12.3"/>
	<path class="st0" d="M12.3,54.6c-0.8,0.8-2.1,0.8-2.9,0c-0.8-0.8-0.8-2.1,0-2.9c0.8-0.8,2.1-0.8,2.9,0
		C13.1,52.5,13.1,53.8,12.3,54.6"/>
	<path class="st0" d="M34.1,2.1c0,1.1-0.9,2.1-2.1,2.1c-1.1,0-2.1-0.9-2.1-2.1S30.9,0,32,0C33.1,0,34.1,0.9,34.1,2.1"/>
	<path class="st0" d="M34.1,61.9c0,1.1-0.9,2.1-2.1,2.1c-1.1,0-2.1-0.9-2.1-2.1c0-1.1,0.9-2.1,2.1-2.1
		C33.1,59.9,34.1,60.8,34.1,61.9"/>
	<path class="st0" d="M12.3,9.4c0.8,0.8,0.8,2.1,0,2.9c-0.8,0.8-2.1,0.8-2.9,0c-0.8-0.8-0.8-2.1,0-2.9C10.2,8.6,11.5,8.6,12.3,9.4"
		/>
	<path class="st0" d="M54.6,51.7c0.8,0.8,0.8,2.1,0,2.9c-0.8,0.8-2.1,0.8-2.9,0c-0.8-0.8-0.8-2.1,0-2.9
		C52.5,50.9,53.8,50.9,54.6,51.7"/>
	<path class="st0" d="M2.1,29.9c1.1,0,2.1,0.9,2.1,2.1c0,1.1-0.9,2.1-2.1,2.1C0.9,34.1,0,33.1,0,32C0,30.9,0.9,29.9,2.1,29.9"/>
	<path class="st0" d="M61.9,29.9c1.1,0,2.1,0.9,2.1,2.1c0,1.1-0.9,2.1-2.1,2.1c-1.1,0-2.1-0.9-2.1-2.1
		C59.9,30.9,60.8,29.9,61.9,29.9"/>
</g>
</svg>
