<?xml version="1.0" encoding="utf-8"?>
<!-- Generator: Adobe Illustrator 23.0.0, SVG Export Plug-In . SVG Version: 6.00 Build 0)  -->
<svg version="1.1" id="图层_1" xmlns="http://www.w3.org/2000/svg" xmlns:xlink="http://www.w3.org/1999/xlink" x="0px" y="0px"
	 viewBox="0 0 150 150" style="enable-background:new 0 0 150 150;" xml:space="preserve">
<style type="text/css">
	.st0{fill:url(#SVGID_1_);}
</style>
<radialGradient id="SVGID_1_" cx="75.0016" cy="74.9977" r="93.0198" gradientUnits="userSpaceOnUse">
	<stop  offset="0" style="stop-color:#55CBFF"/>
	<stop  offset="1" style="stop-color:#0E48D8"/>
</radialGradient>
<path class="st0" d="M140.1,55.9c0.8-0.4,1.3-1.3,1.3-2.2V37.8c0-0.9-0.5-1.7-1.3-2.2l-13.8-8c-0.8-0.4-1.7-0.4-2.5,0l-12.4,7.1
	L91.3,24c0,0-0.1,0-0.1,0v-13c0-0.9-0.5-1.7-1.3-2.2l-13.8-8c-0.8-0.4-1.7-0.4-2.5,0L60.3,8.4c-0.6,0.2-1.1,0.5-1.4,1.1
	c-0.3,0.5-0.4,1.1-0.3,1.7v12.5L38.8,34.9l-12.5-7.2c-0.8-0.4-1.7-0.4-2.5,0l-13.3,7.7c-0.6,0.2-1.1,0.5-1.4,1.1
	c-0.3,0.5-0.4,1.1-0.3,1.7v15.6c0,0.9,0.5,1.7,1.3,2.2l12.5,7.2v19.7l-12,6.9C9.9,90,9.3,90.4,9,90.9c-0.3,0.5-0.4,1.1-0.3,1.7v15.6
	c0,0.9,0.5,1.7,1.3,2.2l13.8,8c0.4,0.2,0.8,0.3,1.2,0.3s0.9-0.1,1.2-0.3l9.6-5.6l22.7,13v13.3c0,0.9,0.5,1.7,1.3,2.2l13.8,8
	c0.4,0.2,0.8,0.3,1.2,0.3s0.9-0.1,1.2-0.3l13.8-8c0.8-0.4,1.3-1.3,1.3-2.2v-13.2l23.3-12.8l9.2,5.3c0.4,0.2,0.8,0.3,1.2,0.3
	s0.9-0.1,1.2-0.3l13.8-8c0.8-0.4,1.3-1.3,1.3-2.2V92.3c0-0.9-0.5-1.7-1.3-2.2l-12.6-7.3V63.2L140.1,55.9z M133.9,92.3l-9.3,5.2
	l-9.9-4.4l9.7-5.6c0.2,0,0.4,0.1,0.6,0.1c0.2,0,0.4,0,0.6-0.1L133.9,92.3z M74.6,128.3l-8.6-5.1l8.9-5.1l8.8,5.1L74.6,128.3z
	 M59.7,28.9c0.1,0,0.1,0.1,0.2,0.1l12.4,7.1l0.1,13.3L54,60l-12.6-7.7v-13L59.7,28.9z M72.1,20.4l0,10l-8.6-4.9V15.3L72.1,20.4z
	 M111.6,56.9l11,6.3v19.7L110,90.1c-0.3,0.2-0.5,0.4-0.7,0.6l-10.6-4.8V64.3L111.6,56.9z M122.3,47.3l0.1,10l-8.6-5V42.2L122.3,47.3
	z M93.7,86l-16.6,9.6L77,76.8l16.7-9.6V86z M51.2,85.5l-10.7,4.9c-0.1-0.1-0.2-0.2-0.4-0.3l-12.6-7.3V63.2l11.4-6.6l12.3,7.5V85.5z
	 M56.2,67.2L72,76.8l0.1,18.4L56.2,86V67.2z M74.5,72.5l-15.7-9.5l15.8-9.1c0.1,0,0.1,0,0.1,0c0,0,0,0,0,0c0.1,0,0.3,0,0.4,0
	L91,62.9L74.5,72.5z M77.1,20.4l9.1-5.1v10.1l-9.1,5.2L77.1,20.4z M36.3,52.3l-9,5.2l-0.1-10.2l9.1-5.1V52.3z M25,87.2l9.9,5.7
	l-10.1,4.6l-8.7-5.2L25,87.2z M27.2,101.9l9.1-4.1v9l-9,5.2L27.2,101.9z M41.3,108.2V95.5l11.9-5.4L72.1,101l0.1,12.9l-11.9,6.8
	c-0.1,0-0.2,0.1-0.3,0.1l-19.2-11C41.1,109.4,41.3,108.8,41.3,108.2z M89.8,120.9l-12.6-7.3l-0.1-12.3l19.1-11l12.5,5.6v12.3
	c0,0.7,0.3,1.4,0.9,1.9L89.8,120.9z M113.7,106.8v-8.6l8.5,3.8l0.1,9.8L113.7,106.8z M127.3,57.5l-0.1-10.2l9.1-5.1v10.1L127.3,57.5
	z M125,32.7l8.8,5.1l-9.1,5.1l-8.6-5.1L125,32.7z M108.7,39.1v13.7L96,60L77.3,49.2l-0.1-12.8L90,29c0,0,0,0,0.1,0L108.7,39.1z
	 M74.9,5.8l8.8,5.1l-9.1,5.1L66,10.9L74.9,5.8z M25,32.7l8.8,5.1L24.8,43l-8.6-5.1L25,32.7z M13.7,42.2l8.5,5.1l0.1,10l-8.6-5V42.2z
	 M13.7,96.6l8.5,5.1l0.1,10l-8.6-5V96.6z M63.6,127.5l8.5,5.1l0.1,10l-8.6-5V127.5z M77.2,142.8l-0.1-10.2l9.1-5.1v10.1L77.2,142.8z
	 M127.3,112l-0.1-10.2l9.1-5.1v10.1L127.3,112z"/>
</svg>
